<?xml version="1.0" encoding="UTF-8"?>
<!DOCTYPE svg PUBLIC "-//W3C//DTD SVG 1.1//EN" "http://www.w3.org/Graphics/SVG/1.1/DTD/svg11.dtd">
<svg xmlns="http://www.w3.org/2000/svg" version="1.1" width="1920px" height="1080px" style="shape-rendering:geometricPrecision; text-rendering:geometricPrecision; image-rendering:optimizeQuality; fill-rule:evenodd; clip-rule:evenodd" xmlns:xlink="http://www.w3.org/1999/xlink">
<g><path style="opacity:1" fill="#fefefe" d="M -0.5,-0.5 C 639.5,-0.5 1279.5,-0.5 1919.5,-0.5C 1919.5,359.5 1919.5,719.5 1919.5,1079.5C 1279.5,1079.5 639.5,1079.5 -0.5,1079.5C -0.5,719.5 -0.5,359.5 -0.5,-0.5 Z"/></g>
<g><path style="opacity:1" fill="#000000" d="M 626.5,525.5 C 625.833,525.833 625.167,526.167 624.5,526.5C 624.5,518.833 624.5,511.167 624.5,503.5C 616.833,502.833 609.167,502.167 601.5,501.5C 609.298,494.202 616.965,486.702 624.5,479C 632.493,478.5 640.493,478.334 648.5,478.5C 648.666,486.84 648.5,495.173 648,503.5C 640.631,510.702 633.464,518.035 626.5,525.5 Z"/></g>
<g><path style="opacity:1" fill="#020202" d="M 917.5,494.5 C 922.833,494.5 928.167,494.5 933.5,494.5C 933.5,524.167 933.5,553.833 933.5,583.5C 928.167,583.5 922.833,583.5 917.5,583.5C 917.5,553.833 917.5,524.167 917.5,494.5 Z"/></g>
<g><path style="opacity:1" fill="#686868" d="M 917.5,494.5 C 922.975,493.511 928.642,493.178 934.5,493.5C 934.5,523.833 934.5,554.167 934.5,584.5C 928.642,584.822 922.975,584.489 917.5,583.5C 922.833,583.5 928.167,583.5 933.5,583.5C 933.5,553.833 933.5,524.167 933.5,494.5C 928.167,494.5 922.833,494.5 917.5,494.5 Z"/></g>
<g><path style="opacity:1" fill="#909090" d="M 1006.5,494.5 C 1001.17,494.5 995.833,494.5 990.5,494.5C 990.667,509.17 990.5,523.837 990,538.5C 989.487,537.473 988.987,536.473 988.5,535.5C 989.496,521.677 989.829,507.677 989.5,493.5C 995.358,493.178 1001.02,493.511 1006.5,494.5 Z"/></g>
<g><path style="opacity:1" fill="#040404" d="M 1006.5,494.5 C 1006.5,524.167 1006.5,553.833 1006.5,583.5C 1001.17,583.5 995.833,583.5 990.5,583.5C 990.666,578.156 990.499,572.823 990,567.5C 989.283,568.044 988.783,568.711 988.5,569.5C 982.605,582.613 972.605,587.446 958.5,584C 945.515,577.373 939.515,566.706 940.5,552C 940.203,537.974 946.203,527.64 958.5,521C 972.622,517.562 982.622,522.396 988.5,535.5C 988.987,536.473 989.487,537.473 990,538.5C 990.5,523.837 990.667,509.17 990.5,494.5C 995.833,494.5 1001.17,494.5 1006.5,494.5 Z"/></g>
<g><path style="opacity:1" fill="#969696" d="M 1372.5,494.5 C 1367.17,494.5 1361.83,494.5 1356.5,494.5C 1356.5,524.167 1356.5,553.833 1356.5,583.5C 1355.5,553.671 1355.17,523.671 1355.5,493.5C 1361.36,493.178 1367.02,493.511 1372.5,494.5 Z"/></g>
<g><path style="opacity:1" fill="#010101" d="M 1372.5,494.5 C 1372.33,508.171 1372.5,521.837 1373,535.5C 1379.35,521.24 1389.85,516.74 1404.5,522C 1410.94,525.771 1415.1,531.271 1417,538.5C 1417.5,553.496 1417.67,568.496 1417.5,583.5C 1412.17,583.5 1406.83,583.5 1401.5,583.5C 1401.67,570.829 1401.5,558.162 1401,545.5C 1396.51,535 1389.01,532.166 1378.5,537C 1376.29,538.873 1374.46,541.04 1373,543.5C 1372.5,556.829 1372.33,570.163 1372.5,583.5C 1367.17,583.5 1361.83,583.5 1356.5,583.5C 1356.5,553.833 1356.5,524.167 1356.5,494.5C 1361.83,494.5 1367.17,494.5 1372.5,494.5 Z"/></g>
<g><path style="opacity:1" fill="#484848" d="M 1154.5,499.5 C 1177.66,498.502 1200.99,498.169 1224.5,498.5C 1224.5,503.833 1224.5,509.167 1224.5,514.5C 1215.83,514.5 1207.17,514.5 1198.5,514.5C 1206.65,513.507 1214.98,513.174 1223.5,513.5C 1223.5,508.833 1223.5,504.167 1223.5,499.5C 1200.5,499.5 1177.5,499.5 1154.5,499.5 Z"/></g>
<g><path style="opacity:1" fill="#666666" d="M 752.5,499.5 C 738.5,499.5 724.5,499.5 710.5,499.5C 710.5,527.5 710.5,555.5 710.5,583.5C 724.833,583.5 739.167,583.5 753.5,583.5C 739.01,584.496 724.343,584.829 709.5,584.5C 709.5,555.833 709.5,527.167 709.5,498.5C 724.01,498.171 738.343,498.504 752.5,499.5 Z"/></g>
<g><path style="opacity:1" fill="#010101" d="M 752.5,499.5 C 770.11,503.719 775.943,514.385 770,531.5C 766.245,536.295 761.412,539.462 755.5,541C 773.098,544.376 779.265,554.542 774,571.5C 769.234,578.969 762.4,582.969 753.5,583.5C 739.167,583.5 724.833,583.5 710.5,583.5C 710.5,555.5 710.5,527.5 710.5,499.5C 724.5,499.5 738.5,499.5 752.5,499.5 Z"/></g>
<g><path style="opacity:1" fill="#030303" d="M 1154.5,499.5 C 1177.5,499.5 1200.5,499.5 1223.5,499.5C 1223.5,504.167 1223.5,508.833 1223.5,513.5C 1214.98,513.174 1206.65,513.507 1198.5,514.5C 1197.5,537.327 1197.17,560.327 1197.5,583.5C 1191.83,583.5 1186.17,583.5 1180.5,583.5C 1180.5,560.5 1180.5,537.5 1180.5,514.5C 1171.83,514.5 1163.17,514.5 1154.5,514.5C 1154.5,509.5 1154.5,504.5 1154.5,499.5 Z"/></g>
<g><path style="opacity:1" fill="#9d9d9d" d="M 601.5,501.5 C 609.167,502.167 616.833,502.833 624.5,503.5C 616.472,503.831 608.472,503.498 600.5,502.5C 600.624,501.893 600.957,501.56 601.5,501.5 Z"/></g>
<g><path style="opacity:1" fill="#b3b3b3" d="M 748.5,514.5 C 741.5,514.5 734.5,514.5 727.5,514.5C 727.5,520.833 727.5,527.167 727.5,533.5C 734.5,533.5 741.5,533.5 748.5,533.5C 741.352,534.492 734.019,534.825 726.5,534.5C 726.5,527.5 726.5,520.5 726.5,513.5C 734.019,513.175 741.352,513.508 748.5,514.5 Z"/></g>
<g><path style="opacity:1" fill="#fdfdfd" d="M 748.5,514.5 C 756.444,516.769 758.611,521.769 755,529.5C 753.429,531.923 751.263,533.256 748.5,533.5C 741.5,533.5 734.5,533.5 727.5,533.5C 727.5,527.167 727.5,520.833 727.5,514.5C 734.5,514.5 741.5,514.5 748.5,514.5 Z"/></g>
<g><path style="opacity:1" fill="#050505" d="M 802.5,520.5 C 822.53,516.929 836.697,524.262 845,542.5C 849.127,562.692 841.627,576.525 822.5,584C 803.687,588.064 789.854,581.564 781,564.5C 775.642,543.552 782.808,528.885 802.5,520.5 Z"/></g>
<g><path style="opacity:1" fill="#060606" d="M 1040.5,519.5 C 1065.87,519.867 1078.2,532.534 1077.5,557.5C 1061.5,558.167 1045.5,558.833 1029.5,559.5C 1034.36,569.758 1042.36,573.258 1053.5,570C 1057.28,568.382 1060.28,565.882 1062.5,562.5C 1066.96,564.231 1071.3,566.231 1075.5,568.5C 1066.92,581.29 1054.92,586.79 1039.5,585C 1019.03,579.237 1010.19,565.737 1013,544.5C 1017.64,531.025 1026.8,522.692 1040.5,519.5 Z"/></g>
<g><path style="opacity:1" fill="#010101" d="M 1123.5,520.5 C 1123.82,525.695 1123.49,530.695 1122.5,535.5C 1113.26,532.687 1106.26,535.354 1101.5,543.5C 1100.5,556.656 1100.17,569.99 1100.5,583.5C 1095.17,583.5 1089.83,583.5 1084.5,583.5C 1084.5,562.833 1084.5,542.167 1084.5,521.5C 1089.83,521.5 1095.17,521.5 1100.5,521.5C 1100.33,526.179 1100.5,530.845 1101,535.5C 1101.79,534.255 1102.29,532.922 1102.5,531.5C 1106.48,522.339 1113.48,518.673 1123.5,520.5 Z"/></g>
<g><path style="opacity:1" fill="#060606" d="M 1246.5,519.5 C 1271.87,519.867 1284.2,532.534 1283.5,557.5C 1267.5,558.167 1251.5,558.833 1235.5,559.5C 1240.36,569.758 1248.36,573.258 1259.5,570C 1263.28,568.382 1266.28,565.882 1268.5,562.5C 1272.84,564.502 1277.18,566.502 1281.5,568.5C 1272.89,581.21 1260.89,586.71 1245.5,585C 1225.03,579.237 1216.19,565.737 1219,544.5C 1223.66,530.998 1232.83,522.664 1246.5,519.5 Z"/></g>
<g><path style="opacity:1" fill="#050505" d="M 1311.5,520.5 C 1326.28,517.814 1338.45,522.148 1348,533.5C 1349.41,535.65 1350.24,537.984 1350.5,540.5C 1345.93,541.523 1341.43,542.856 1337,544.5C 1334.52,542.022 1332.02,539.522 1329.5,537C 1315.38,532.556 1307.04,537.556 1304.5,552C 1306.38,567.561 1314.71,572.894 1329.5,568C 1332.33,565.842 1334.83,563.342 1337,560.5C 1341.43,562.144 1345.93,563.477 1350.5,564.5C 1346.4,575.756 1338.4,582.589 1326.5,585C 1308.51,586.591 1296.01,579.091 1289,562.5C 1284.71,542.078 1292.21,528.078 1311.5,520.5 Z"/></g>
<g><path style="opacity:1" fill="#020202" d="M 851.5,521.5 C 856.833,521.5 862.167,521.5 867.5,521.5C 867.333,535.171 867.5,548.837 868,562.5C 873.065,570.751 879.899,572.585 888.5,568C 890.617,566.269 892.117,564.102 893,561.5C 893.5,548.171 893.667,534.837 893.5,521.5C 898.833,521.5 904.167,521.5 909.5,521.5C 909.667,535.837 909.5,550.171 909,564.5C 904.51,578.141 895.01,585.141 880.5,585.5C 868.03,585.022 858.864,579.356 853,568.5C 851.563,552.891 851.063,537.224 851.5,521.5 Z"/></g>
<g><path style="opacity:1" fill="#c7c7c7" d="M 1084.5,521.5 C 1089.98,520.511 1095.64,520.178 1101.5,520.5C 1101.19,524.371 1101.52,528.038 1102.5,531.5C 1102.29,532.922 1101.79,534.255 1101,535.5C 1100.5,530.845 1100.33,526.179 1100.5,521.5C 1095.17,521.5 1089.83,521.5 1084.5,521.5 Z"/></g>
<g><path style="opacity:1" fill="#646464" d="M 1123.5,520.5 C 1124.81,525.68 1124.81,531.014 1123.5,536.5C 1122.89,536.376 1122.56,536.043 1122.5,535.5C 1123.49,530.695 1123.82,525.695 1123.5,520.5 Z"/></g>
<g><path style="opacity:1" fill="#bebebe" d="M 626.5,525.5 C 633.833,526.167 641.167,526.833 648.5,527.5C 624.167,527.5 599.833,527.5 575.5,527.5C 591.658,526.504 607.991,526.17 624.5,526.5C 625.167,526.167 625.833,525.833 626.5,525.5 Z"/></g>
<g><path style="opacity:1" fill="#010101" d="M 575.5,527.5 C 599.833,527.5 624.167,527.5 648.5,527.5C 648.667,540.837 648.5,554.171 648,567.5C 642.773,586.057 630.606,596.891 611.5,600C 575.5,600.667 539.5,600.667 503.5,600C 511.015,592.652 518.348,585.152 525.5,577.5C 552.494,576.667 579.494,576.167 606.5,576C 618.865,573.124 624.865,565.291 624.5,552.5C 600.5,551.833 576.5,551.167 552.5,550.5C 560.5,543.167 568.167,535.5 575.5,527.5 Z"/></g>
<g><path style="opacity:1" fill="#fafafa" d="M 1060.5,544.5 C 1055.68,545.166 1050.68,545.499 1045.5,545.5C 1040.12,545.494 1035.12,544.828 1030.5,543.5C 1035.12,535.201 1042.12,532.367 1051.5,535C 1056.08,536.744 1059.08,539.91 1060.5,544.5 Z"/></g>
<g><path style="opacity:1" fill="#fafafa" d="M 1266.5,544.5 C 1261.68,545.166 1256.68,545.499 1251.5,545.5C 1246.12,545.494 1241.12,544.828 1236.5,543.5C 1241.12,535.201 1248.12,532.367 1257.5,535C 1262.08,536.744 1265.08,539.91 1266.5,544.5 Z"/></g>
<g><path style="opacity:1" fill="#fafafa" d="M 806.5,535.5 C 824.112,534.274 831.278,542.274 828,559.5C 823.32,569.284 815.82,572.45 805.5,569C 797.375,563.64 794.542,556.14 797,546.5C 798.798,541.518 801.965,537.851 806.5,535.5 Z"/></g>
<g><path style="opacity:1" fill="#f9f9f9" d="M 967.5,535.5 C 983.259,533.761 990.759,540.761 990,556.5C 985.355,568.906 976.855,572.739 964.5,568C 957.908,561.894 955.742,554.394 958,545.5C 960.022,540.98 963.189,537.647 967.5,535.5 Z"/></g>
<g><path style="opacity:1" fill="#626262" d="M 1030.5,543.5 C 1035.12,544.828 1040.12,545.494 1045.5,545.5C 1050.68,545.499 1055.68,545.166 1060.5,544.5C 1061.04,544.56 1061.38,544.893 1061.5,545.5C 1050.85,546.499 1040.19,546.832 1029.5,546.5C 1029.26,545.209 1029.6,544.209 1030.5,543.5 Z"/></g>
<g><path style="opacity:1" fill="#626262" d="M 1236.5,543.5 C 1241.12,544.828 1246.12,545.494 1251.5,545.5C 1256.68,545.499 1261.68,545.166 1266.5,544.5C 1267.04,544.56 1267.38,544.893 1267.5,545.5C 1256.85,546.499 1246.19,546.832 1235.5,546.5C 1235.26,545.209 1235.6,544.209 1236.5,543.5 Z"/></g>
<g><path style="opacity:1" fill="#cdcdcd" d="M 1101.5,543.5 C 1101.5,557.167 1101.5,570.833 1101.5,584.5C 1095.64,584.822 1089.98,584.489 1084.5,583.5C 1089.83,583.5 1095.17,583.5 1100.5,583.5C 1100.17,569.99 1100.5,556.656 1101.5,543.5 Z"/></g>
<g><path style="opacity:1" fill="#f6f6f6" d="M 726.5,548.5 C 734.507,548.334 742.507,548.5 750.5,549C 758.679,552.044 760.679,557.544 756.5,565.5C 755.5,566.333 754.5,567.167 753.5,568C 744.582,569.414 735.582,569.914 726.5,569.5C 726.5,562.5 726.5,555.5 726.5,548.5 Z"/></g>
<g><path style="opacity:1" fill="#bebebe" d="M 552.5,550.5 C 576.5,551.167 600.5,551.833 624.5,552.5C 600.158,552.833 575.824,552.5 551.5,551.5C 551.624,550.893 551.957,550.56 552.5,550.5 Z"/></g>
<g><path style="opacity:1" fill="#9b9b9b" d="M 990.5,583.5 C 989.833,578.833 989.167,574.167 988.5,569.5C 988.783,568.711 989.283,568.044 990,567.5C 990.499,572.823 990.666,578.156 990.5,583.5 Z"/></g>
</svg>
