<?xml version="1.0" encoding="UTF-8"?>
<!DOCTYPE svg PUBLIC "-//W3C//DTD SVG 1.1//EN" "http://www.w3.org/Graphics/SVG/1.1/DTD/svg11.dtd">
<svg xmlns="http://www.w3.org/2000/svg" version="1.1" width="400px" height="400px" style="shape-rendering:geometricPrecision; text-rendering:geometricPrecision; image-rendering:optimizeQuality; fill-rule:evenodd; clip-rule:evenodd" xmlns:xlink="http://www.w3.org/1999/xlink">
<g><path style="opacity:1" fill="#042b63" d="M -0.5,-0.5 C 132.833,-0.5 266.167,-0.5 399.5,-0.5C 399.5,132.833 399.5,266.167 399.5,399.5C 266.167,399.5 132.833,399.5 -0.5,399.5C -0.5,266.167 -0.5,132.833 -0.5,-0.5 Z"/></g>
<g><path style="opacity:1" fill="#c8e7fc" d="M 256.5,98.5 C 256.5,101.833 256.5,105.167 256.5,108.5C 267.476,106.919 278.476,105.419 289.5,104C 300.217,103.125 310.884,103.459 321.5,105C 329.822,106.48 332.988,111.313 331,119.5C 330.261,122.546 329.428,125.546 328.5,128.5C 323.504,136.678 317.504,144.178 310.5,151C 300.838,157.833 290.838,164.166 280.5,170C 277.976,171.883 276.642,174.383 276.5,177.5C 275.833,199.167 275.167,220.833 274.5,242.5C 270.728,240.066 266.728,238.066 262.5,236.5C 245.871,228.467 228.205,223.967 209.5,223C 178.648,220.413 149.981,226.913 123.5,242.5C 122.833,220.5 122.167,198.5 121.5,176.5C 121.067,173.805 119.734,171.638 117.5,170C 110.302,165.568 102.968,161.402 95.5,157.5C 82.146,148.121 72.646,135.787 67,120.5C 64.8335,113.001 67.3335,107.834 74.5,105C 79.9346,103.942 85.4346,103.442 91,103.5C 107.958,104.022 124.791,105.688 141.5,108.5C 140.931,103.223 141.765,98.223 144,93.5C 149.988,88.9985 155.321,89.6652 160,95.5C 161.726,99.9531 163.726,104.286 166,108.5C 166.804,109.804 167.971,110.471 169.5,110.5C 178.957,107.608 188.623,106.275 198.5,106.5C 209.307,107.045 219.973,108.212 230.5,110C 233.373,105.398 235.873,100.564 238,95.5C 241.81,90.3315 246.643,89.1648 252.5,92C 254.221,93.9438 255.554,96.1105 256.5,98.5 Z"/></g>
<g><path style="opacity:1" fill="#0e3161" d="M 328.5,128.5 C 329.428,125.546 330.261,122.546 331,119.5C 332.988,111.313 329.822,106.48 321.5,105C 310.884,103.459 300.217,103.125 289.5,104C 278.476,105.419 267.476,106.919 256.5,108.5C 256.5,105.167 256.5,101.833 256.5,98.5C 257.496,98.5858 258.329,98.2524 259,97.5C 259.383,101.006 260.717,104.006 263,106.5C 276.552,103.622 290.219,101.622 304,100.5C 308.317,100.396 312.484,101.063 316.5,102.5C 318.044,102.21 319.377,101.544 320.5,100.5C 323.556,102.392 326.723,104.059 330,105.5C 330.559,102.741 332.059,100.741 334.5,99.5C 336.051,102.938 335.551,105.938 333,108.5C 333.271,114.868 333.104,121.201 332.5,127.5C 331.041,127.433 329.708,127.766 328.5,128.5 Z"/></g>
<g><path style="opacity:1" fill="#0f2d5e" d="M 239.5,153.5 C 249.495,152.913 256.995,156.913 262,165.5C 264.307,177.054 260.14,185.221 249.5,190C 237.455,191.592 225.788,190.258 214.5,186C 204.584,181.151 203.917,175.151 212.5,168C 220.713,161.562 229.713,156.729 239.5,153.5 Z"/></g>
<g><path style="opacity:1" fill="#0a2b62" d="M 172.5,159.5 C 169.77,161.926 166.437,163.259 162.5,163.5C 161.942,162.21 160.942,161.377 159.5,161C 155.313,159.422 151.313,159.589 147.5,161.5C 146.446,161.32 145.446,160.987 144.5,160.5C 144.003,162.216 143.669,163.883 143.5,165.5C 141.717,163.977 141.051,161.977 141.5,159.5C 142.833,159.5 144.167,159.5 145.5,159.5C 145.5,158.167 145.5,156.833 145.5,155.5C 149.269,153.581 153.269,153.081 157.5,154C 162.82,155.16 167.82,156.993 172.5,159.5 Z"/></g>
<g><path style="opacity:1" fill="#d7c072" d="M 162.5,163.5 C 164.5,164.833 166.5,166.167 168.5,167.5C 165.309,166.908 162.309,165.741 159.5,164C 155.446,163.306 151.446,163.473 147.5,164.5C 149.031,162.32 151.198,161.32 154,161.5C 156.921,161.864 159.754,162.531 162.5,163.5 Z"/></g>
<g><path style="opacity:1" fill="#eecb6e" d="M 248.5,162.5 C 254.727,166.332 256.061,171.332 252.5,177.5C 252.789,173.894 252.456,170.394 251.5,167C 249.436,166.347 247.769,165.18 246.5,163.5C 245.41,164.391 245.41,165.391 246.5,166.5C 245.333,166.833 244.167,167.167 243,167.5C 240.761,166.909 238.594,166.242 236.5,165.5C 240.018,163.034 244.018,162.034 248.5,162.5 Z"/></g>
<g><path style="opacity:1" fill="#1a305c" d="M 172.5,159.5 C 176.736,161.445 180.403,164.112 183.5,167.5C 182.596,168.209 182.263,169.209 182.5,170.5C 181.448,170.351 180.448,170.517 179.5,171C 181.572,172.273 182.905,174.107 183.5,176.5C 183.043,177.298 182.376,177.631 181.5,177.5C 179.078,173.601 175.744,170.601 171.5,168.5C 170.609,167.89 169.609,167.557 168.5,167.5C 166.5,166.167 164.5,164.833 162.5,163.5C 166.437,163.259 169.77,161.926 172.5,159.5 Z"/></g>
<g><path style="opacity:1" fill="#d0bb78" d="M 248.5,162.5 C 244.018,162.034 240.018,163.034 236.5,165.5C 232.277,167.444 227.944,169.111 223.5,170.5C 230.85,164.159 239.183,161.492 248.5,162.5 Z"/></g>
<g><path style="opacity:1" fill="#ecca71" d="M 171.5,168.5 C 175.744,170.601 179.078,173.601 181.5,177.5C 180.391,177.557 179.391,177.89 178.5,178.5C 179.109,174.94 177.609,172.94 174,172.5C 171.88,173.459 169.713,173.626 167.5,173C 168.793,172.51 170.127,172.343 171.5,172.5C 171.5,171.167 171.5,169.833 171.5,168.5 Z"/></g>
<g><path style="opacity:1" fill="#122f5d" d="M 145.5,155.5 C 145.5,156.833 145.5,158.167 145.5,159.5C 144.167,159.5 142.833,159.5 141.5,159.5C 141.051,161.977 141.717,163.977 143.5,165.5C 143.669,163.883 144.003,162.216 144.5,160.5C 145.446,160.987 146.446,161.32 147.5,161.5C 151.313,159.589 155.313,159.422 159.5,161C 160.942,161.377 161.942,162.21 162.5,163.5C 159.754,162.531 156.921,161.864 154,161.5C 151.198,161.32 149.031,162.32 147.5,164.5C 144.607,165.805 143.274,168.139 143.5,171.5C 143.031,175.695 144.697,178.695 148.5,180.5C 148.5,180.833 148.5,181.167 148.5,181.5C 147.5,181.5 146.5,181.5 145.5,181.5C 145.281,182.675 145.614,183.675 146.5,184.5C 151.017,184.377 154.017,186.377 155.5,190.5C 141.134,189.63 134.3,181.964 135,167.5C 136.934,162.07 140.434,158.07 145.5,155.5 Z"/></g>
<g><path style="opacity:1" fill="#face59" d="M 252.5,177.5 C 251.415,179.587 249.749,180.92 247.5,181.5C 239.483,181.499 231.483,181.166 223.5,180.5C 222.027,178.916 220.36,177.416 218.5,176C 218.743,175.098 219.077,174.265 219.5,173.5C 220.262,171.738 221.596,170.738 223.5,170.5C 227.944,169.111 232.277,167.444 236.5,165.5C 238.594,166.242 240.761,166.909 243,167.5C 244.167,167.167 245.333,166.833 246.5,166.5C 245.41,165.391 245.41,164.391 246.5,163.5C 247.769,165.18 249.436,166.347 251.5,167C 252.456,170.394 252.789,173.894 252.5,177.5 Z"/></g>
<g><path style="opacity:1" fill="#bbb97b" d="M 219.5,173.5 C 219.077,174.265 218.743,175.098 218.5,176C 220.36,177.416 222.027,178.916 223.5,180.5C 220.808,179.991 218.308,178.991 216,177.5C 215.832,175.159 216.999,173.826 219.5,173.5 Z"/></g>
<g><path style="opacity:1" fill="#f9ce59" d="M 168.5,167.5 C 169.609,167.557 170.609,167.89 171.5,168.5C 171.5,169.833 171.5,171.167 171.5,172.5C 170.127,172.343 168.793,172.51 167.5,173C 169.713,173.626 171.88,173.459 174,172.5C 177.609,172.94 179.109,174.94 178.5,178.5C 175.112,180.118 171.446,181.118 167.5,181.5C 161.108,181.751 154.775,181.418 148.5,180.5C 144.697,178.695 143.031,175.695 143.5,171.5C 143.274,168.139 144.607,165.805 147.5,164.5C 151.446,163.473 155.446,163.306 159.5,164C 162.309,165.741 165.309,166.908 168.5,167.5 Z"/></g>
<g><path style="opacity:1" fill="#373b44" d="M 181.5,177.5 C 180.657,179.173 179.324,180.34 177.5,181C 174.173,181.61 170.839,182.11 167.5,182.5C 167.5,182.167 167.5,181.833 167.5,181.5C 171.446,181.118 175.112,180.118 178.5,178.5C 179.391,177.89 180.391,177.557 181.5,177.5 Z"/></g>
<g><path style="opacity:1" fill="#c5b07c" d="M 148.5,181.5 C 148.5,181.167 148.5,180.833 148.5,180.5C 154.775,181.418 161.108,181.751 167.5,181.5C 167.5,181.833 167.5,182.167 167.5,182.5C 161.077,182.791 154.744,182.458 148.5,181.5 Z"/></g>
<g><path style="opacity:1" fill="#c9b27e" d="M 223.5,181.5 C 223.5,181.167 223.5,180.833 223.5,180.5C 231.483,181.166 239.483,181.499 247.5,181.5C 247.158,182.338 246.492,182.672 245.5,182.5C 238.142,182.582 230.809,182.248 223.5,181.5 Z"/></g>
<g><path style="opacity:1" fill="#2e383c" d="M 223.5,181.5 C 230.809,182.248 238.142,182.582 245.5,182.5C 239.347,183.653 233.014,183.82 226.5,183C 225.263,182.768 224.263,182.268 223.5,181.5 Z"/></g>
<g><path style="opacity:1" fill="#587aa1" d="M 121.5,176.5 C 122.167,198.5 122.833,220.5 123.5,242.5C 123.44,243.043 123.107,243.376 122.5,243.5C 121.5,221.177 121.167,198.843 121.5,176.5 Z"/></g>
<g><path style="opacity:1" fill="#50719c" d="M 276.5,177.5 C 276.833,199.51 276.5,221.51 275.5,243.5C 274.893,243.376 274.56,243.043 274.5,242.5C 275.167,220.833 275.833,199.167 276.5,177.5 Z"/></g>
<g><path style="opacity:1" fill="#112e63" d="M 183.5,167.5 C 190.881,171.048 192.548,176.215 188.5,183C 178.297,188.704 167.297,191.204 155.5,190.5C 154.017,186.377 151.017,184.377 146.5,184.5C 145.614,183.675 145.281,182.675 145.5,181.5C 146.5,181.5 147.5,181.5 148.5,181.5C 154.744,182.458 161.077,182.791 167.5,182.5C 170.839,182.11 174.173,181.61 177.5,181C 179.324,180.34 180.657,179.173 181.5,177.5C 182.376,177.631 183.043,177.298 183.5,176.5C 182.905,174.107 181.572,172.273 179.5,171C 180.448,170.517 181.448,170.351 182.5,170.5C 182.263,169.209 182.596,168.209 183.5,167.5 Z"/></g>
<g><path style="opacity:1" fill="#0b2e63" d="M 95.5,157.5 C 102.968,161.402 110.302,165.568 117.5,170C 119.734,171.638 121.067,173.805 121.5,176.5C 121.167,198.843 121.5,221.177 122.5,243.5C 123.107,243.376 123.44,243.043 123.5,242.5C 149.981,226.913 178.648,220.413 209.5,223C 228.205,223.967 245.871,228.467 262.5,236.5C 258.858,235.92 255.191,235.42 251.5,235C 248.497,233.026 245.164,231.86 241.5,231.5C 237.779,232.668 234.112,233.835 230.5,235C 237.167,236 243.833,237 250.5,238C 251.337,239.011 251.67,240.178 251.5,241.5C 256.029,242.431 260.363,243.931 264.5,246C 265.337,247.011 265.67,248.178 265.5,249.5C 252.411,242.222 238.411,237.389 223.5,235C 191.538,229.618 161.205,234.285 132.5,249C 129.471,251.176 126.471,253.343 123.5,255.5C 122.013,252.788 122.679,250.621 125.5,249C 131.558,249.177 132.558,247.344 128.5,243.5C 127.667,244.5 126.833,245.5 126,246.5C 121.693,246.239 118.527,244.239 116.5,240.5C 117.811,229.658 118.478,218.658 118.5,207.5C 118.167,196.833 117.833,186.167 117.5,175.5C 115.998,174.917 114.665,174.084 113.5,173C 113.833,172.667 114.167,172.333 114.5,172C 112.137,171.411 111.137,169.911 111.5,167.5C 108.15,167.494 105.15,166.494 102.5,164.5C 102.167,165.167 101.833,165.833 101.5,166.5C 97.4959,164.83 95.4959,161.83 95.5,157.5 Z"/></g>
<g><path style="opacity:1" fill="#c8e7fc" d="M 265.5,249.5 C 277.133,255.744 285.3,265.077 290,277.5C 291.607,291.683 287.107,303.517 276.5,313C 258.539,326.548 238.205,334.215 215.5,336C 191.031,338.961 167.364,335.961 144.5,327C 131.869,321.944 121.369,314.11 113,303.5C 103.416,284.583 106.916,268.583 123.5,255.5C 126.471,253.343 129.471,251.176 132.5,249C 161.205,234.285 191.538,229.618 223.5,235C 238.411,237.389 252.411,242.222 265.5,249.5 Z"/></g>
<g><path style="opacity:1" fill="#082c62" d="M 247.5,261.5 C 250.263,261.744 252.429,263.077 254,265.5C 259.057,272.79 259.723,280.457 256,288.5C 244.513,293.603 236.18,290.27 231,278.5C 229.801,275.274 229.301,271.941 229.5,268.5C 232.714,269.44 235.714,270.94 238.5,273C 240.464,273.624 242.131,273.124 243.5,271.5C 244.539,267.972 245.872,264.639 247.5,261.5 Z"/></g>
<g><path style="opacity:1" fill="#082c63" d="M 147.5,261.5 C 149.39,261.297 150.89,261.963 152,263.5C 152.187,267.039 153.354,270.205 155.5,273C 156.833,273.667 158.167,273.667 159.5,273C 161.976,270.429 164.976,268.929 168.5,268.5C 168.881,279.568 163.881,287.068 153.5,291C 144.346,292.686 139.346,288.853 138.5,279.5C 139.43,272.307 142.43,266.307 147.5,261.5 Z"/></g>
</svg>
