<svg width="118" height="29" viewBox="0 0 118 29" fill="none" xmlns="http://www.w3.org/2000/svg">
    <path
        d="M64.7535 7.60898L60.6299 17.8851L56.4644 7.60898H52.1934V22.4531H55.8087V13.5303L59.1491 22.4531H62.0669L65.3873 13.5502V22.4531H69.0026V7.60898H64.7535Z"
        fill="#303237" />
    <path d="M71.5917 7.60898V22.4531H75.207V7.60898H71.5917Z" fill="#303237" />
    <path
        d="M83.3086 7.60898H77.746V22.4531H83.3086C88.0441 22.4531 91.0894 19.4297 91.0894 15.031C91.0894 10.6324 88.0441 7.60898 83.3086 7.60898ZM83.0754 19.324H81.3634V10.6962H83.0754C85.8039 10.6962 87.4103 12.3026 87.4103 15.031C87.4103 17.7595 85.8039 19.324 83.0754 19.324Z"
        fill="#303237" />
    <path
        d="M100.563 7.60898H96.3771L91.0059 22.4531H94.7907L95.6776 19.8303H101.218L102.107 22.4531H105.934L100.563 7.60898ZM96.6303 17.04L98.4479 11.605L100.287 17.04H96.6303Z"
        fill="#303237" />
    <path
        d="M110.115 11.6492C110.115 10.7184 110.771 10.274 111.638 10.2959C112.611 10.3158 113.286 10.8878 113.35 11.8385H117.262C117.113 9.0044 114.937 7.39801 111.7 7.39801C108.463 7.39801 106.287 8.96254 106.287 11.7747C106.245 17.0403 113.667 15.5595 113.667 18.3099C113.667 19.1769 112.991 19.705 111.933 19.705C110.875 19.705 110.199 19.1549 110.093 18.0129H106.245C106.351 21.0164 108.846 22.6009 112.039 22.6009C115.507 22.6009 117.452 20.5301 117.452 18.0348C117.452 13.0642 110.115 14.2281 110.115 11.6492Z"
        fill="#303237" />
    <path fill-rule="evenodd" clip-rule="evenodd"
        d="M7 8.16991L0.748069 4.59738C0.414741 4.40691 0 4.64759 0 5.0315V20.5896C0 20.9484 0.192285 21.2798 0.50386 21.4578L13.2519 28.7424C13.5853 28.9329 14 28.6922 14 28.3083V20.9199L7 16.6699V8.16991Z"
        fill="url(#paint0_linear_1567_6136)" fill-opacity="0.5" />
    <path fill-rule="evenodd" clip-rule="evenodd"
        d="M28 20.9199V28.3083C28 28.6922 28.4147 28.9329 28.7481 28.7424L41.4961 21.4578C41.8077 21.2798 42 20.9484 42 20.5896V5.0315C42 4.64759 41.5853 4.40691 41.2519 4.59738L35 8.16991V16.6699L28 20.9199Z"
        fill="url(#paint1_linear_1567_6136)" fill-opacity="0.5" />
    <path
        d="M7 1.03151C7 0.6476 7.41474 0.406917 7.74807 0.59739L20.7519 8.02817C20.9056 8.11601 21.0944 8.11601 21.2481 8.02817L34.2519 0.59739C34.5853 0.406916 35 0.6476 35 1.03151V16.6699L21.2595 25.0124C21.1 25.1092 20.9 25.1092 20.7405 25.0124L7 16.6699V1.03151Z"
        fill="#3864FF" />
    <path
        d="M7 1.03151C7 0.6476 7.41474 0.406917 7.74807 0.59739L20.7519 8.02817C20.9056 8.11601 21.0944 8.11601 21.2481 8.02817L34.2519 0.59739C34.5853 0.406916 35 0.6476 35 1.03151V16.6699L21.2595 25.0124C21.1 25.1092 20.9 25.1092 20.7405 25.0124L7 16.6699V1.03151Z"
        fill="url(#paint2_linear_1567_6136)" />
    <defs>
        <linearGradient id="paint0_linear_1567_6136" x1="0" y1="16.6699" x2="14" y2="16.6699"
            gradientUnits="userSpaceOnUse">
            <stop stop-color="#3864FF" />
            <stop offset="1" stop-color="#3894FF" />
        </linearGradient>
        <linearGradient id="paint1_linear_1567_6136" x1="28" y1="16.6699" x2="42" y2="16.6699"
            gradientUnits="userSpaceOnUse">
            <stop stop-color="#3864FF" />
            <stop offset="1" stop-color="#3894FF" />
        </linearGradient>
        <linearGradient id="paint2_linear_1567_6136" x1="7" y1="12.6699" x2="35" y2="12.6699"
            gradientUnits="userSpaceOnUse">
            <stop stop-color="#3864FF" />
            <stop offset="1" stop-color="#3894FF" />
        </linearGradient>
    </defs>
</svg>